<svg xmlns="http://www.w3.org/2000/svg" viewBox="0 0 64 64"><rect width="64" height="64" rx="13" fill="#0e3b2c"/><g transform="translate(15.8 10) scale(0.0757)" fill="#ffffff" fill-rule="evenodd"><path d="M176 17.5L250.5 17.5L258 84L271 141L284 172L303.5 193.5L319.5 195.5L333.5 187L332.5 159.5L312.5 96L339 87.5L368 178L384 257L387 305.5L385 369L377 413.5L364 451L341.5 489.5L313.5 518.5L283 538L244.5 550.5L211.5 554L171 549L136.5 536L103.5 513L77 482.5L59.5 451L45.5 410L38.5 371L36.5 305L41.5 243.5L58.5 165.5L82.5 88L109.5 95.5L90 160.5L89 186L106.5 196L126 189.5L139.5 173L156.5 131.5L168.5 76.5ZM201 46L191 109L178 156L162 190L141.5 214L224 214L283 213.5L261.5 189L245.5 153.5L232.5 101.5L225.5 46.5ZM211 72.5L211 136.5L212.5 141L220 139.5L210.5 145.5L207.5 139L204.5 153L201 154.5L200.5 150L194 152.5L194 126L196.5 149L208.5 136.5ZM222 141.5L227 154L216 166.5L221 169L229.5 163L231.5 145.5L232 160L220.5 175L230.5 170L230 173L222.5 180L218.5 178.5L196.5 188L189 189L183.5 183.5L198.5 184.5L218.5 175L212.5 170L199.5 178L196.5 171.5L202 173.5L215 165.5L213.5 148L218 160.5L224.5 157L220 146.5ZM239.5 174L232.5 182L210.5 192L199 203L188 204.5L178.5 200.5L200.5 198.5L216.5 181.5L226 182.5ZM72.5 235.5L65 296.5L66.5 366.5L195 367.5L203 367L203 235.5ZM224.5 235.5L224.5 367.5L357 365.5L358.5 296L351.5 235ZM292 244.5L299 249.5L305.5 271.5L319.5 262.5L332 260.5L334 270.5L323 289.5L342.5 294.5L350 301.5L344.5 309L323 315L332 329L334 342L325 344L305 333L300 353L293.5 359.5L286.5 355.5L280 333L260.5 344L252 343L251.5 333L262 314.5L245.5 311L235.5 304L240.5 295.5L262 290L251.5 271.5L251.5 262L261 260.5L280 271.5L285.5 250.5ZM131 248L133.5 275.5L141.5 249L144.5 250.5L138.5 274L152.5 250.5L154.5 253.5L142.5 275L165 255.5L144.5 278.5L176.5 263L148 281.5L182 269.5L182 341L131 356L82.5 341L82.5 269.5L116.5 281L87.5 262.5L90 261L119 278L97.5 254.5L100.5 253.5L121 274.5L108.5 251.5L112 251L125 273.5L119.5 250.5L122 248.5L130 277ZM292 249L287 256.5L284 275.5L293.5 282L301.5 272L296.5 252.5ZM255 264.5L256 272.5L266.5 289L278 288L279.5 276.5L264.5 266ZM325.5 264.5L305.5 276.5L306.5 288L311.5 288.5L318.5 289L326.5 277.5L330.5 264.5ZM86 274.5L85.5 338.5L130.5 352.5L130.5 289.5ZM177 274.5L134 289.5L133.5 352L136 352.5L179 338.5ZM288.5 292L282 297.5L282 306.5L287.5 312.5L297.5 312.5L303.5 306L303.5 298.5L297 291.5ZM263.5 293.5L239.5 301L242 305.5L251.5 308.5L265 311.5L272.5 303ZM320 293.5L312.5 302L319.5 311L336 308L346 303L343.5 299ZM267.5 315.5L254 337.5L255 340.5L264 338L279.5 328L278.5 316.5ZM316.5 315.5L306.5 316.5L305.5 327.5L322 338.5L330 340.5L330.5 335ZM292.5 322.5L284 329L284 335L289 352.5L293.5 355.5L301.5 329.5ZM71 388.5L77.5 418L120.5 393.5L165 420L80 420.5L81 427.5L342.5 427.5L345 421.5L259.5 419.5L303 393.5L346 418L352.5 388ZM213 393.5L257.5 420.5L212 421L168 420ZM176.5 438.5L159 454.5L139.5 438.5L120.5 456L134 463.5L146.5 463.5L157.5 458.5L171 463.5L182.5 463.5L193.5 458.5L207.5 463.5L230 458.5L255 463.5L268.5 458.5L279.5 463.5L291.5 463.5L305.5 457L286 438L268 454.5L250 438L231.5 454.5L213.5 438L195.5 454.5ZM140.5 443L154.5 456.5L140 460L126 457ZM176.5 443L191 455.5L177 460L162.5 457ZM213 443L227.5 455.5L213.5 460L199 456.5ZM249.5 443L263.5 455.5L249.5 460L235.5 457ZM285.5 443L300 455.5L286 460L271.5 457ZM111.5 462.5L112 468L103 475.5L102 481L114.5 482L114.5 470.5L123.5 479.5L117 489L116.5 485L113 488.5L114.5 498L119.5 500.5L129.5 492L129 486L120 491L127 482.5L135 489.5L132.5 494.5L137 496L131 500L129.5 494.5L127 500L136 507.5L138.5 515L146.5 498.5L151 502.5L146 518L156.5 502.5L162 511L157 511L156 516L163 517.5L165 526L174 506.5L159 501L156 495.5L153.5 498.5L149 491L144.5 496.5L141.5 490L135.5 489.5L135.5 480L128.5 473L130 470L125 474L132 483ZM309.5 466.5L285 489.5L278.5 490L279 493.5L253 506L234 502L229 506.5L230 511L223.5 508.5L224 515.5L221 512L216 514.5L204.5 512L194 502.5L181.5 509L185.5 513L184.5 531L189.5 513.5L199.5 515L191.5 521L203.5 534L206 515.5L213 516.5L212.5 523.5L220.5 523.5L222 516.5L224 521.5L218 528.5L230 534L226.5 515.5L231.5 514.5L234 530L237 531.5L237.5 528.5L235 513.5L245.5 511.5L239 519L255.5 527.5L251.5 509.5L255.5 508.5L261.5 518.5L267 511L274 520.5L269.5 505L265.5 505L261 512L259 506.5L273.5 500.5L280.5 517.5L283.5 510.5L276.5 501L278 497L282 497L293 509.5L284 493L289 490.5L289 496L297 498.5L300 487.5L310.5 496L300 480.5L307 477.5L307.5 484L324.5 480.5L311.5 469L313 466Z"/></g></svg>